<svg xmlns="http://www.w3.org/2000/svg" width="87" height="64" fill="none">
  <path fill="#060047" fill-rule="evenodd" d="M44.888 62.408v.72h40.824l.504-13.032h-.72l-.216 2.376c-.144 2.448-.624 4.416-1.44 5.904-.816 1.44-2.016 2.472-3.6 3.096-1.584.624-3.648.936-6.192.936H61.52V36.632h17.424v-.72H61.52v-.314h-9.864v22.13c0 1.248-.192 2.208-.576 2.88-.384.672-.912 1.152-1.584 1.44-.672.24-1.464.36-2.376.36h-2.232Zm6.768-39.244h9.864V12.44h10.296c2.544 0 4.584.312 6.12.936 1.536.624 2.688 1.656 3.456 3.096.816 1.44 1.296 3.384 1.44 5.832l.216 2.448h.72l-.432-13.032H44.888v.72h2.232c.912 0 1.704.144 2.376.432.672.24 1.2.696 1.584 1.368.384.672.576 1.656.576 2.952v5.972Z" clip-rule="evenodd"/>
  <path fill="#060047" fill-rule="evenodd" d="M8.715 50.688v.72h40.752l.576-15.84h-.72l-.216 3.24c-.192 2.928-.72 5.256-1.584 6.984-.864 1.728-2.16 2.976-3.888 3.744-1.68.768-3.912 1.152-6.696 1.152H25.347V35.264h-9.864v10.528c0 1.296-.192 2.304-.576 3.024-.336.672-.864 1.152-1.584 1.44-.672.288-1.464.432-2.376.432H8.715Zm6.768-27.584h9.864V5.4c0-1.248.168-2.208.504-2.88.384-.672.912-1.128 1.584-1.368.72-.288 1.512-.432 2.376-.432h2.232V0H8.715v.72h2.232c.912 0 1.704.144 2.376.432.672.24 1.2.696 1.584 1.368.384.672.576 1.656.576 2.952v17.632Z" clip-rule="evenodd"/>
  <path fill="#060047" d="M4.17 25.764c.073 0 .1.017.08.05-.02.027-.05.04-.09.04-.087 0-.2.027-.34.08-.133.047-.267.12-.4.22a1.258 1.258 0 0 0-.34.36.948.948 0 0 0-.14.52c0 .247.06.457.18.63.12.174.303.307.55.4.247.087.553.13.92.13.327 0 .677-.06 1.05-.18.38-.126.753-.293 1.12-.5a6.75 6.75 0 0 0 1.02-.71c.307-.26.55-.526.73-.8.187-.28.28-.546.28-.8 0-.073-.04-.146-.12-.22a.42.42 0 0 0-.31-.11c-.3 0-.577.077-.83.23a3.052 3.052 0 0 0-.73.64c-.233.267-.47.577-.71.93-.233.354-.48.73-.74 1.13-.167.254-.363.52-.59.8a5.96 5.96 0 0 1-.76.78 3.85 3.85 0 0 1-.97.59c-.353.147-.75.22-1.19.22-.58 0-.87-.12-.87-.36 0-.073.073-.15.22-.23.14-.086.353-.13.64-.13.273 0 .513.034.72.1.207.06.417.13.63.21.22.08.477.154.77.22.293.06.663.09 1.11.09.2 0 .42-.03.66-.09.24-.066.417-.173.53-.32.027-.033.053-.046.08-.04.027.007.023.037-.01.09-.08.114-.23.234-.45.36-.213.12-.493.18-.84.18-.267 0-.547-.03-.84-.09-.293-.06-.583-.13-.87-.21-.287-.086-.557-.16-.81-.22a2.952 2.952 0 0 0-.67-.09c-.233 0-.417.02-.55.06-.14.034-.21.07-.21.11 0 .074.073.137.22.19.14.047.323.07.55.07.36 0 .68-.066.96-.2.28-.14.537-.323.77-.55.233-.233.453-.496.66-.79.213-.293.427-.593.64-.9.28-.413.557-.793.83-1.14.273-.346.553-.65.84-.91.287-.26.587-.46.9-.6.32-.146.663-.22 1.03-.22.133 0 .26.037.38.11.127.074.19.194.19.36 0 .24-.1.5-.3.78a4.188 4.188 0 0 1-.78.81c-.32.267-.68.51-1.08.73a6.92 6.92 0 0 1-1.19.53c-.4.127-.773.19-1.12.19-.487 0-.87-.06-1.15-.18-.28-.12-.48-.27-.6-.45a.992.992 0 0 1-.17-.53c0-.22.07-.433.21-.64.147-.213.333-.386.56-.52.233-.14.48-.21.74-.21Zm5.69 4.43c-.313 0-.52-.07-.62-.21a.804.804 0 0 1-.15-.46c0-.273.07-.526.21-.76.14-.24.32-.453.54-.64.22-.186.447-.33.68-.43.24-.106.454-.16.64-.16.134 0 .24.02.32.06.08.034.12.107.12.22 0 .107-.063.22-.19.34-.126.12-.286.237-.48.35a6.186 6.186 0 0 1-1.18.51c-.173.054-.3.08-.38.08v-.11c.06.007.164-.013.31-.06.154-.046.324-.106.51-.18.187-.08.367-.17.54-.27.18-.1.327-.206.44-.32.12-.113.18-.223.18-.33 0-.053-.016-.1-.05-.14-.026-.04-.076-.06-.15-.06-.106 0-.236.054-.39.16-.146.1-.296.234-.45.4a5.547 5.547 0 0 0-.43.53 4.064 4.064 0 0 0-.33.54c-.08.167-.12.307-.12.42 0 .134.04.234.12.3.08.067.197.1.35.1.267 0 .517-.063.75-.19a3.55 3.55 0 0 0 .65-.46c.194-.18.357-.346.49-.5.134-.16.224-.263.27-.31l.03.03.04.03-.27.32c-.133.16-.3.334-.5.52-.2.187-.426.347-.68.48-.253.134-.526.2-.82.2Zm6.057-2.64c.2 0 .337.03.41.09.08.06.12.14.12.24 0 .094-.023.19-.07.29a2.42 2.42 0 0 1-.15.26 3.58 3.58 0 0 0-.09.16.287.287 0 0 1-.14.13c-.053.014-.037-.04.05-.16.113-.146.197-.286.25-.42.053-.14.057-.253.01-.34-.04-.093-.153-.14-.34-.14-.127 0-.277.057-.45.17-.167.107-.34.25-.52.43a5.27 5.27 0 0 0-.51.57c-.153.2-.28.394-.38.58-.093.18-.14.334-.14.46 0 .094.02.15.06.17.04.02.09.03.15.03.153 0 .33-.066.53-.2.2-.14.407-.316.62-.53.213-.213.417-.433.61-.66.2-.233.373-.443.52-.63.147-.193.25-.333.31-.42.073.02.147.034.22.04.08 0 .183-.01.31-.03-.44.507-.85 1.024-1.23 1.55l-1.09 1.51c-.347.48-.687.907-1.02 1.28-.34.38-.683.68-1.03.9-.347.22-.71.33-1.09.33a.5.5 0 0 1-.3-.08.243.243 0 0 1-.12-.21c0-.146.077-.3.23-.46.153-.153.353-.303.6-.45a11.106 11.106 0 0 1 1.62-.79l.66-.27a6.25 6.25 0 0 0 .94-.48c.313-.193.607-.403.88-.63.28-.226.527-.446.74-.66.22-.213.39-.403.51-.57l.03.04.04.04c-.167.22-.397.474-.69.76a8.5 8.5 0 0 1-1.05.84c-.407.28-.863.527-1.37.74l-.64.27c-.253.107-.517.224-.79.35-.273.134-.53.27-.77.41-.24.147-.433.29-.58.43-.153.147-.23.287-.23.42 0 .047.023.094.07.14.047.047.12.07.22.07.187 0 .393-.08.62-.24.227-.16.467-.37.72-.63a16.5 16.5 0 0 0 .75-.85c.247-.3.483-.6.71-.9l.61-.81c.187-.24.337-.42.45-.54l-.02-.01-.01-.01a5.233 5.233 0 0 1-.58.58c-.153.127-.317.24-.49.34a1.07 1.07 0 0 1-.51.14c-.173 0-.29-.05-.35-.15a.599.599 0 0 1-.1-.34c0-.213.06-.443.18-.69.113-.246.273-.48.48-.7.213-.22.457-.4.73-.54.28-.146.577-.22.89-.22Zm5.825.8a.397.397 0 0 1-.12.14.61.61 0 0 1-.11.08c-.02.007-.013-.013.02-.06a1.12 1.12 0 0 0 .23-.41c.04-.126.04-.226 0-.3-.033-.08-.1-.12-.2-.12-.133 0-.29.054-.47.16-.18.107-.366.247-.56.42-.186.174-.363.36-.53.56-.16.194-.29.384-.39.57-.1.18-.15.337-.15.47 0 .1.02.164.06.19.04.027.08.04.12.04.154 0 .33-.07.53-.21.207-.146.417-.33.63-.55.214-.22.417-.443.61-.67.194-.233.36-.443.5-.63l.3-.38c.074.027.16.037.26.03.107-.006.197-.013.27-.02-.013.02-.083.104-.21.25-.12.147-.266.324-.44.53-.166.2-.336.407-.51.62-.166.214-.306.4-.42.56-.113.16-.17.267-.17.32 0 .067.014.11.04.13.034.014.084.02.15.02.08-.006.197-.043.35-.11.154-.073.35-.213.59-.42.24-.206.53-.513.87-.92l.04.03.05.03c-.4.467-.77.834-1.11 1.1-.34.26-.65.39-.93.39-.146 0-.246-.023-.3-.07-.046-.046-.07-.113-.07-.2 0-.066.027-.146.08-.24.06-.1.127-.196.2-.29.074-.093.134-.166.18-.22l-.02-.01-.02-.01c-.153.187-.316.36-.49.52-.173.16-.346.287-.52.38a.998.998 0 0 1-.49.14c-.166 0-.283-.04-.35-.12-.066-.086-.1-.216-.1-.39 0-.166.054-.366.16-.6.107-.24.26-.473.46-.7.2-.233.44-.426.72-.58.287-.153.607-.23.96-.23.174 0 .294.034.36.1.067.06.097.134.09.22a.92.92 0 0 1-.06.26 1.51 1.51 0 0 1-.09.2Zm6.448-4.31c.074.014.164.02.27.02.114 0 .204-.006.27-.02l-3.48 4.85c-.106.16-.21.31-.31.45s-.18.264-.24.37c-.066.1-.1.18-.1.24 0 .047.02.08.06.1.034.02.084.03.15.03.154 0 .324-.053.51-.16.187-.113.37-.253.55-.42.187-.166.357-.33.51-.49.16-.16.287-.29.38-.39l.07.06-.36.39c-.153.167-.33.337-.53.51a3.74 3.74 0 0 1-.61.43c-.206.12-.41.18-.61.18a.413.413 0 0 1-.27-.09.305.305 0 0 1-.12-.26c0-.073.027-.166.08-.28.054-.113.12-.23.2-.35.074-.126.147-.24.22-.34.067-.106.12-.186.16-.24l3.2-4.59Zm5.356 6.15a.736.736 0 0 1-.31-.08c-.12-.046-.18-.126-.18-.24 0-.14.063-.316.19-.53.127-.213.283-.433.47-.66.18-.226.357-.44.53-.64.173-.2.303-.356.39-.47a3.405 3.405 0 0 0 .54 0c-.093.114-.217.257-.37.43a99.928 99.928 0 0 0-.94 1.13 6.322 6.322 0 0 0-.36.5c-.093.147-.14.254-.14.32 0 .047.02.08.06.1.04.02.107.03.2.03.16 0 .337-.06.53-.18.2-.126.393-.276.58-.45.187-.173.353-.336.5-.49.147-.16.25-.276.31-.35l.08.07-.31.35c-.14.16-.31.33-.51.51-.193.18-.4.334-.62.46-.213.127-.427.19-.64.19Zm2-3.38c-.08 0-.14-.023-.18-.07a.292.292 0 0 1-.06-.18c0-.073.04-.15.12-.23.08-.08.163-.12.25-.12.093 0 .16.027.2.08.04.047.06.094.06.14 0 .1-.04.19-.12.27a.39.39 0 0 1-.27.11Zm4.097 3.38c-.353 0-.53-.103-.53-.31 0-.133.044-.276.13-.43a3.4 3.4 0 0 1 .34-.46c.134-.16.267-.316.4-.47.14-.153.254-.293.34-.42.093-.133.14-.246.14-.34 0-.033-.017-.06-.05-.08-.026-.026-.066-.04-.12-.04-.08 0-.193.04-.34.12-.14.08-.32.217-.54.41-.213.187-.466.44-.76.76-.293.314-.63.707-1.01 1.18-.06-.013-.15-.02-.27-.02-.12 0-.223.014-.31.04.194-.28.383-.553.57-.82l.51-.73c.16-.22.287-.4.38-.54.093-.146.14-.236.14-.27 0-.06-.03-.09-.09-.09-.066 0-.15.054-.25.16-.1.1-.21.23-.33.39l-.37.47-.09-.06c.133-.153.264-.313.39-.48.127-.166.257-.31.39-.43a.622.622 0 0 1 .42-.18c.074 0 .14.02.2.06.067.034.1.09.1.17a.58.58 0 0 1-.09.27c-.053.1-.127.217-.22.35-.093.127-.2.27-.32.43-.113.154-.233.32-.36.5l.01.06c.354-.386.65-.7.89-.94.247-.24.45-.423.61-.55.167-.133.31-.223.43-.27a.93.93 0 0 1 .36-.08c.153 0 .263.034.33.1.067.06.1.144.1.25 0 .16-.047.33-.14.51a3.38 3.38 0 0 1-.35.52c-.133.167-.27.324-.41.47l-.34.36c-.093.1-.14.167-.14.2 0 .04.01.07.03.09.027.02.09.03.19.03.247 0 .48-.076.7-.23.227-.153.444-.34.65-.56.207-.226.4-.45.58-.67l.08.07c-.18.214-.377.437-.59.67a3.9 3.9 0 0 1-.67.59c-.233.16-.473.24-.72.24Zm10.152 1.06c-.06-.04-.126-.14-.2-.3-.066-.16-.1-.41-.1-.75 0-.22.044-.443.13-.67a2.33 2.33 0 0 1 .36-.64c.154-.2.334-.36.54-.48.207-.12.43-.18.67-.18.2 0 .35.064.45.19.1.12.15.257.15.41 0 .174-.073.37-.22.59-.146.214-.366.397-.66.55-.286.154-.646.23-1.08.23-.246 0-.486-.033-.72-.1a1.275 1.275 0 0 1-.56-.35c-.146-.16-.22-.37-.22-.63 0-.34.107-.65.32-.93.22-.28.504-.503.85-.67.354-.166.727-.25 1.12-.25.114 0 .26.014.44.04.18.02.34.06.48.12.14.06.21.144.21.25 0 .047-.016.08-.05.1a.321.321 0 0 1-.12.02c-.173 0-.343-.046-.51-.14-.166-.1-.306-.23-.42-.39a.919.919 0 0 1-.16-.52c0-.366.11-.696.33-.99.227-.3.52-.536.88-.71.367-.173.76-.26 1.18-.26.427 0 .747.077.96.23a.7.7 0 0 1 .32.61c0 .227-.113.45-.34.67-.22.22-.523.4-.91.54a3.83 3.83 0 0 1-1.31.21c-.526 0-.956-.05-1.29-.15-.333-.1-.593-.22-.78-.36a1.739 1.739 0 0 1-.4-.41 2.596 2.596 0 0 1-.14-.28c-.02-.053-.02-.083 0-.09.02-.013.047-.003.08.03.02.034.06.11.12.23.067.12.177.25.33.39.16.14.394.264.7.37.307.1.714.15 1.22.15.28 0 .57-.033.87-.1.307-.066.587-.16.84-.28.26-.12.47-.26.63-.42.16-.166.24-.346.24-.54 0-.2-.083-.366-.25-.5-.166-.133-.426-.2-.78-.2-.3 0-.58.07-.84.21a2.858 2.858 0 0 0-1.15 1.17c-.113.214-.17.394-.17.54 0 .147.037.29.11.43.08.14.177.254.29.34.12.087.24.13.36.13.047 0 .07-.016.07-.05 0-.026-.03-.06-.09-.1a.81.81 0 0 0-.25-.1 1.11 1.11 0 0 0-.35-.05c-.266 0-.53.057-.79.17-.26.114-.5.264-.72.45a2.44 2.44 0 0 0-.52.6c-.126.22-.19.437-.19.65 0 .16.037.3.11.42.08.12.194.217.34.29.147.067.33.1.55.1.22 0 .44-.046.66-.14.22-.1.42-.226.6-.38.187-.153.334-.31.44-.47.114-.166.17-.313.17-.44 0-.1-.036-.18-.11-.24a.445.445 0 0 0-.31-.1c-.22 0-.426.06-.62.18a1.876 1.876 0 0 0-.52.46 2.32 2.32 0 0 0-.35.63 1.745 1.745 0 0 0-.12.68c.007.207.03.39.07.55a.92.92 0 0 0 .19.38c.014.02.017.04.01.06-.006.02-.03.017-.07-.01Zm6.093-3.69c.06.027.15.04.27.04.127 0 .233-.006.32-.02-.167.2-.353.417-.56.65-.207.227-.403.454-.59.68-.187.227-.34.43-.46.61-.127.18-.19.32-.19.42 0 .067.02.11.06.13a.25.25 0 0 0 .13.03c.16 0 .337-.063.53-.19.2-.126.403-.29.61-.49.213-.206.42-.426.62-.66.2-.233.383-.453.55-.66.173-.213.32-.39.44-.53.067.02.16.03.28.03.12 0 .223-.006.31-.02-.173.22-.367.454-.58.7l-.62.7c-.193.22-.353.417-.48.59-.127.167-.19.294-.19.38 0 .04.017.074.05.1.04.02.093.03.16.03.147 0 .303-.05.47-.15.173-.106.343-.236.51-.39.173-.16.337-.32.49-.48.16-.166.297-.313.41-.44l.08.07-.4.43a7.25 7.25 0 0 1-.51.5 3.79 3.79 0 0 1-.55.41c-.187.107-.363.16-.53.16a.46.46 0 0 1-.26-.08c-.08-.053-.12-.15-.12-.29 0-.126.03-.256.09-.39.06-.14.123-.26.19-.36l.12-.19.07.03a4.68 4.68 0 0 1-.74.78c-.167.14-.343.26-.53.36-.187.094-.37.14-.55.14-.287 0-.43-.15-.43-.45 0-.126.053-.276.16-.45.107-.18.243-.37.41-.57.16-.206.327-.41.5-.61s.327-.383.46-.55Zm4.528 1.23c-.027.027-.047.03-.06.01a.113.113 0 0 1-.01-.08 2.93 2.93 0 0 0 .33-.4c.113-.153.207-.296.28-.43.08-.133.127-.223.14-.27.013 0 .033-.01.06-.03.033-.02.063-.026.09-.02a.748.748 0 0 1-.03.13c-.007.04.017.077.07.11.053.034.163.067.33.1.167.034.42.07.76.11.033.007.057.02.07.04.02.014.01.037-.03.07a4.91 4.91 0 0 0-.42.38 8.055 8.055 0 0 0-.45.49c-.14.167-.257.33-.35.49-.087.16-.13.294-.13.4 0 .12.053.18.16.18.133 0 .283-.053.45-.16.173-.106.347-.236.52-.39.173-.16.333-.32.48-.48l.38-.41.08.06a8.875 8.875 0 0 0-.36.39 7.098 7.098 0 0 1-.5.51c-.18.167-.373.31-.58.43-.207.114-.42.17-.64.17a.648.648 0 0 1-.34-.09c-.1-.053-.15-.153-.15-.3 0-.14.06-.286.18-.44.12-.153.27-.306.45-.46.18-.16.367-.31.56-.45.2-.146.377-.28.53-.4l.07.09a1.566 1.566 0 0 0-.35-.07 8.776 8.776 0 0 1-.52-.1 2.026 2.026 0 0 1-.47-.18c-.127-.073-.19-.173-.19-.3 0-.066.027-.146.08-.24.06-.1.14-.15.24-.15.093 0 .157.02.19.06a.19.19 0 0 1 .05.14c0 .04-.033.124-.1.25-.067.12-.15.264-.25.43-.1.16-.207.314-.32.46a2.434 2.434 0 0 1-.3.35Zm6.357-1.24c.333 0 .5.16.5.48 0 .247-.057.5-.17.76a2.65 2.65 0 0 1-.46.7 2.824 2.824 0 0 1-.63.51 1.4 1.4 0 0 1-.69.19.748.748 0 0 1-.45-.13c-.127-.093-.19-.243-.19-.45 0-.193.057-.406.17-.64a2.78 2.78 0 0 1 .46-.68c.2-.213.423-.39.67-.53.253-.14.517-.21.79-.21Zm.11.14c-.113 0-.247.05-.4.15-.153.1-.31.23-.47.39-.16.16-.31.334-.45.52-.133.18-.243.357-.33.53-.08.174-.12.32-.12.44 0 .134.037.227.11.28.073.047.157.07.25.07.153 0 .327-.063.52-.19.193-.133.38-.3.56-.5.18-.2.327-.41.44-.63.12-.226.18-.433.18-.62 0-.173-.03-.29-.09-.35a.277.277 0 0 0-.2-.09Zm.18 1.03c.033 0 .047.014.04.04 0 .02-.017.03-.05.03-.027 0-.067.037-.12.11a2.219 2.219 0 0 0-.19.33c0 .154.057.23.17.23.107 0 .227-.05.36-.15.14-.1.273-.213.4-.34.133-.133.24-.25.32-.35l.08.07c-.087.1-.197.22-.33.36a3.53 3.53 0 0 1-.42.36.74.74 0 0 1-.41.15c-.107 0-.18-.023-.22-.07-.04-.046-.06-.13-.06-.25a.48.48 0 0 1 .16-.38c.113-.093.203-.14.27-.14Zm4.56-2.29a1.79 1.79 0 0 0 .59-.01 77.11 77.11 0 0 1-.48.6c-.114.134-.234.277-.36.43a114.497 114.497 0 0 0-.75.95c-.12.147-.23.287-.33.42l-.24.34.03.03c.166-.146.323-.29.47-.43.153-.14.3-.27.44-.39s.276-.23.41-.33c.133-.1.263-.186.39-.26.126-.073.246-.13.36-.17.12-.04.236-.06.35-.06.173 0 .283.03.33.09.046.06.07.137.07.23 0 .187-.06.367-.18.54-.12.167-.267.327-.44.48-.174.154-.35.294-.53.42a6.01 6.01 0 0 0-.44.35c-.12.1-.18.184-.18.25 0 .067.023.114.07.14.046.027.103.04.17.04.206 0 .423-.076.65-.23.226-.153.45-.34.67-.56.22-.226.42-.45.6-.67l.09.06c-.187.214-.394.437-.62.67-.22.234-.45.43-.69.59-.234.16-.464.24-.69.24-.187 0-.31-.04-.37-.12a.465.465 0 0 1-.08-.24c0-.186.06-.363.18-.53a2.64 2.64 0 0 1 .44-.47c.173-.146.346-.283.52-.41.173-.126.32-.243.44-.35.12-.106.18-.203.18-.29 0-.04-.014-.07-.04-.09-.027-.026-.077-.04-.15-.04-.16 0-.344.057-.55.17a4.43 4.43 0 0 0-.65.42c-.22.174-.44.36-.66.56-.214.2-.414.397-.6.59-.18.194-.33.36-.45.5-.127.14-.214.234-.26.28-.034.04-.1.13-.2.27s-.214.307-.34.5a105.36 105.36 0 0 0-.8 1.22c-.127.194-.227.354-.3.48-.08.127-.127.204-.14.23-.027.02-.087.034-.18.04a1.815 1.815 0 0 1-.27 0 .476.476 0 0 1-.19-.04c.006-.013.076-.11.21-.29.133-.173.306-.41.52-.71l.73-1a2114.015 2114.015 0 0 1 2.42-3.32c.233-.313.423-.566.57-.76.146-.2.233-.32.26-.36Zm4.14 3.76c-.313 0-.52-.07-.62-.21a.804.804 0 0 1-.15-.46c0-.273.07-.526.21-.76.14-.24.32-.453.54-.64.22-.186.447-.33.68-.43.24-.106.453-.16.64-.16.133 0 .24.02.32.06.08.034.12.107.12.22 0 .107-.063.22-.19.34-.127.12-.287.237-.48.35a6.2 6.2 0 0 1-1.18.51c-.173.054-.3.08-.38.08v-.11c.06.007.163-.013.31-.06.153-.046.323-.106.51-.18.187-.08.367-.17.54-.27.18-.1.327-.206.44-.32.12-.113.18-.223.18-.33 0-.053-.017-.1-.05-.14-.027-.04-.077-.06-.15-.06-.107 0-.237.054-.39.16a2.66 2.66 0 0 0-.45.4 5.522 5.522 0 0 0-.43.53 4.051 4.051 0 0 0-.33.54c-.08.167-.12.307-.12.42 0 .134.04.234.12.3.08.067.197.1.35.1.267 0 .517-.063.75-.19.24-.133.457-.286.65-.46.193-.18.357-.346.49-.5.133-.16.223-.263.27-.31l.03.03.04.03c-.047.054-.137.16-.27.32s-.3.334-.5.52c-.2.187-.427.347-.68.48-.253.134-.527.2-.82.2Z"/>
</svg>
