<svg xmlns="http://www.w3.org/2000/svg" width="181" height="143" fill="none">
  <path fill="#2416C0" fill-rule="evenodd" d="M7.792 112.64v1.6h90.56l1.28-35.2h-1.6l-.48 7.2c-.427 6.507-1.6 11.68-3.52 15.52s-4.8 6.613-8.64 8.32c-3.733 1.707-8.693 2.56-14.88 2.56h-25.76V75.92h-21.92v25.84c0 2.88-.427 5.12-1.28 6.72-.747 1.493-1.92 2.56-3.52 3.2-1.493.64-3.253.96-5.28.96h-4.96Zm15.04-62.4h21.92V12c0-2.773.373-4.907 1.12-6.4.853-1.493 2.027-2.507 3.52-3.04 1.6-.64 3.36-.96 5.28-.96h4.96V0H7.792v1.6h4.96c2.027 0 3.787.32 5.28.96 1.493.533 2.667 1.547 3.52 3.04.853 1.493 1.28 3.68 1.28 6.56v38.08Z" clip-rule="evenodd"/>
  <path fill="#2416C0" fill-rule="evenodd" d="M88.792 140.64v1.6h90.72l1.12-28.96h-1.6l-.48 5.28c-.32 5.44-1.387 9.813-3.2 13.12-1.813 3.2-4.48 5.493-8 6.88-3.52 1.387-8.107 2.08-13.76 2.08h-27.84V83.36h38.72v-1.6h-38.72v-5.52h-21.92v54c0 2.773-.427 4.907-1.28 6.4-.853 1.493-2.027 2.56-3.52 3.2-1.493.533-3.253.8-5.28.8h-4.96Zm15.04-90.08h21.92V29.6h22.88c5.653 0 10.187.693 13.6 2.08 3.413 1.387 5.973 3.68 7.68 6.88 1.813 3.2 2.88 7.52 3.2 12.96l.48 5.44h1.6l-.96-28.96h-85.44v1.6h4.96c2.027 0 3.787.32 5.28.96 1.493.533 2.667 1.547 3.52 3.04.853 1.493 1.28 3.68 1.28 6.56v10.4Z" clip-rule="evenodd"/>
  <path fill="#2416C0" d="M7.34 58.56c.147 0 .2.034.16.1-.04.054-.1.08-.18.08-.173 0-.4.054-.68.16-.267.094-.533.24-.8.44a2.513 2.513 0 0 0-.68.72c-.187.294-.28.64-.28 1.04 0 .494.12.914.36 1.26.24.347.607.614 1.1.8.493.174 1.107.26 1.84.26.653 0 1.353-.12 2.1-.36.76-.253 1.507-.586 2.24-1 .747-.426 1.427-.9 2.04-1.42.613-.52 1.1-1.053 1.46-1.6.373-.56.56-1.093.56-1.6 0-.146-.08-.293-.24-.44-.147-.146-.353-.22-.62-.22-.6 0-1.153.154-1.66.46-.507.307-.993.734-1.46 1.28-.467.534-.94 1.154-1.42 1.86-.467.707-.96 1.46-1.48 2.26-.333.507-.727 1.04-1.18 1.6-.44.547-.947 1.067-1.52 1.56-.573.48-1.22.874-1.94 1.18-.707.294-1.5.44-2.38.44-1.16 0-1.74-.24-1.74-.72 0-.146.147-.3.44-.46.28-.173.707-.26 1.28-.26.547 0 1.027.067 1.44.2.413.12.833.26 1.26.42.44.16.953.307 1.54.44.587.12 1.327.18 2.22.18.4 0 .84-.06 1.32-.18.48-.133.833-.346 1.06-.64.053-.066.107-.093.16-.08.053.014.047.074-.02.18-.16.227-.46.467-.9.72-.427.24-.987.36-1.68.36-.533 0-1.093-.06-1.68-.18s-1.167-.26-1.74-.42a27.629 27.629 0 0 0-1.62-.44 5.905 5.905 0 0 0-1.34-.18c-.467 0-.833.04-1.1.12-.28.067-.42.14-.42.22 0 .147.147.274.44.38.28.094.647.14 1.1.14.72 0 1.36-.133 1.92-.4a6.148 6.148 0 0 0 1.54-1.1c.467-.466.907-.993 1.32-1.58.427-.586.853-1.186 1.28-1.8a39.183 39.183 0 0 1 1.66-2.28c.547-.693 1.107-1.3 1.68-1.82a6.84 6.84 0 0 1 1.8-1.2 4.885 4.885 0 0 1 2.06-.44c.267 0 .52.074.76.22.253.147.38.387.38.72 0 .48-.2 1-.6 1.56-.387.547-.907 1.087-1.56 1.62-.64.534-1.36 1.02-2.16 1.46-.787.44-1.58.794-2.38 1.06-.8.254-1.547.38-2.24.38-.973 0-1.74-.12-2.3-.36-.56-.24-.96-.54-1.2-.9-.227-.36-.34-.713-.34-1.06 0-.44.14-.866.42-1.28a3.487 3.487 0 0 1 1.12-1.04c.467-.28.96-.42 1.48-.42Zm11.381 8.86c-.626 0-1.04-.14-1.24-.42-.2-.293-.3-.6-.3-.92 0-.546.14-1.053.42-1.52.28-.48.64-.906 1.08-1.28.44-.373.894-.66 1.36-.86.48-.213.907-.32 1.28-.32.267 0 .48.04.64.12.16.067.24.214.24.44 0 .214-.126.44-.38.68-.253.24-.573.474-.96.7-.386.214-.793.414-1.22.6a12.4 12.4 0 0 1-1.14.42c-.346.107-.6.16-.76.16V65c.12.014.327-.026.62-.12a13.83 13.83 0 0 0 1.02-.36c.374-.16.734-.34 1.08-.54.36-.2.654-.413.88-.64.24-.226.36-.446.36-.66 0-.106-.033-.2-.1-.28-.053-.08-.153-.12-.3-.12-.213 0-.473.107-.78.32-.293.2-.593.467-.9.8-.306.334-.593.687-.86 1.06a8.123 8.123 0 0 0-.66 1.08c-.16.334-.24.614-.24.84 0 .267.08.467.24.6.16.134.394.2.7.2.534 0 1.034-.126 1.5-.38a7.11 7.11 0 0 0 1.3-.92c.387-.36.714-.693.98-1 .267-.32.447-.526.54-.62l.06.06.08.06c-.093.107-.273.32-.54.64-.266.32-.6.667-1 1.04-.4.374-.853.694-1.36.96-.506.267-1.053.4-1.64.4Zm12.113-5.28c.4 0 .674.06.82.18.16.12.24.28.24.48 0 .187-.046.38-.14.58-.093.187-.193.36-.3.52-.093.16-.153.267-.18.32a.574.574 0 0 1-.28.26c-.106.027-.073-.08.1-.32.227-.293.394-.573.5-.84.107-.28.114-.506.02-.68-.08-.186-.306-.28-.68-.28-.253 0-.553.114-.9.34-.333.214-.68.5-1.04.86-.36.347-.7.727-1.02 1.14-.306.4-.56.787-.76 1.16-.186.36-.28.667-.28.92 0 .187.04.3.12.34.08.04.18.06.3.06.307 0 .66-.133 1.06-.4.4-.28.814-.633 1.24-1.06.427-.426.834-.866 1.22-1.32.4-.466.747-.886 1.04-1.26.294-.386.5-.666.62-.84.147.04.294.067.44.08.16 0 .367-.02.62-.06a43.963 43.963 0 0 0-2.46 3.1l-2.18 3.02a31.802 31.802 0 0 1-2.04 2.56c-.68.76-1.366 1.36-2.06 1.8-.693.44-1.42.66-2.18.66-.253 0-.453-.053-.6-.16a.485.485 0 0 1-.24-.42c0-.293.154-.6.46-.92.307-.306.707-.606 1.2-.9.494-.293 1.027-.58 1.6-.86.56-.266 1.107-.506 1.64-.72l1.32-.54a12.514 12.514 0 0 0 1.88-.96 15.49 15.49 0 0 0 1.76-1.26 18.99 18.99 0 0 0 1.48-1.32c.44-.426.78-.806 1.02-1.14l.06.08.08.08c-.333.44-.793.947-1.38 1.52a17 17 0 0 1-2.1 1.68 15.243 15.243 0 0 1-2.74 1.48l-1.28.54c-.506.214-1.033.447-1.58.7-.546.267-1.06.54-1.54.82-.48.294-.866.58-1.16.86-.306.294-.46.574-.46.84 0 .094.047.187.14.28.094.094.24.14.44.14.374 0 .787-.16 1.24-.48.454-.32.934-.74 1.44-1.26.494-.52.994-1.086 1.5-1.7.494-.6.967-1.2 1.42-1.8.454-.6.86-1.14 1.22-1.62.374-.48.674-.84.9-1.08l-.04-.02-.02-.02a9.934 9.934 0 0 1-.4.44c-.2.214-.453.454-.76.72a7.12 7.12 0 0 1-.98.68c-.346.187-.686.28-1.02.28-.346 0-.58-.1-.7-.3-.133-.2-.2-.426-.2-.68 0-.426.12-.886.36-1.38a5.25 5.25 0 0 1 .96-1.4c.427-.44.914-.8 1.46-1.08a3.783 3.783 0 0 1 1.78-.44Zm11.651 1.6a.793.793 0 0 1-.24.28 1.22 1.22 0 0 1-.22.16c-.04.014-.027-.026.04-.12.24-.293.393-.566.46-.82.08-.253.08-.453 0-.6-.067-.16-.2-.24-.4-.24-.267 0-.58.107-.94.32-.36.214-.733.494-1.12.84-.373.347-.727.72-1.06 1.12-.32.387-.58.767-.78 1.14-.2.36-.3.674-.3.94 0 .2.04.327.12.38.08.054.16.08.24.08.307 0 .66-.14 1.06-.42.413-.293.833-.66 1.26-1.1.427-.44.833-.886 1.22-1.34.387-.466.72-.886 1-1.26.293-.373.493-.626.6-.76.147.054.32.074.52.06.213-.013.393-.026.54-.04-.027.04-.167.207-.42.5-.24.294-.533.647-.88 1.06-.333.4-.673.814-1.02 1.24-.333.427-.613.8-.84 1.12-.227.32-.34.534-.34.64 0 .134.027.22.08.26.067.027.167.04.3.04.16-.013.393-.086.7-.22.307-.146.7-.426 1.18-.84.48-.413 1.06-1.026 1.74-1.84l.08.06.1.06c-.8.934-1.54 1.667-2.22 2.2-.68.52-1.3.78-1.86.78-.293 0-.493-.046-.6-.14-.093-.093-.14-.226-.14-.4 0-.133.053-.293.16-.48.12-.2.253-.393.4-.58.147-.186.267-.333.36-.44l-.04-.02-.04-.02c-.307.374-.633.72-.98 1.04-.347.32-.693.574-1.04.76-.333.187-.66.28-.98.28-.333 0-.567-.08-.7-.24-.133-.173-.2-.433-.2-.78 0-.333.107-.733.32-1.2.213-.48.52-.946.92-1.4.4-.466.88-.853 1.44-1.16a4.006 4.006 0 0 1 1.92-.46c.347 0 .587.067.72.2.133.12.193.267.18.44a1.833 1.833 0 0 1-.12.52 3.054 3.054 0 0 1-.18.4Zm12.895-8.62c.147.027.327.04.54.04.227 0 .407-.013.54-.04l-6.96 9.7c-.213.32-.42.62-.62.9s-.36.527-.48.74c-.133.2-.2.36-.2.48 0 .094.04.16.12.2.067.04.167.06.3.06.307 0 .647-.106 1.02-.32a6.88 6.88 0 0 0 1.1-.84c.374-.333.714-.66 1.02-.98.32-.32.574-.58.76-.78l.14.12-.72.78c-.306.334-.66.674-1.06 1.02-.386.334-.793.62-1.22.86-.413.24-.82.36-1.22.36a.825.825 0 0 1-.54-.18c-.16-.12-.24-.293-.24-.52 0-.146.054-.333.16-.56.107-.226.24-.46.4-.7.147-.253.294-.48.44-.68a7.33 7.33 0 0 1 .32-.48l6.4-9.18Zm10.712 12.3c-.186 0-.393-.053-.62-.16-.24-.093-.36-.253-.36-.48 0-.28.127-.633.38-1.06.254-.426.567-.866.94-1.32.36-.453.713-.88 1.06-1.28.347-.4.607-.713.78-.94.147.014.32.02.52.02.213 0 .4-.006.56-.02-.187.227-.433.514-.74.86a196.312 196.312 0 0 0-1.88 2.26c-.293.374-.533.707-.72 1-.186.294-.28.507-.28.64 0 .094.04.16.12.2.08.04.213.06.4.06.32 0 .674-.12 1.06-.36.4-.253.787-.553 1.16-.9a23.72 23.72 0 0 0 1-.98c.294-.32.5-.553.62-.7l.16.14-.62.7c-.28.32-.62.66-1.02 1.02-.386.36-.8.667-1.24.92-.427.254-.853.38-1.28.38Zm4-6.76c-.16 0-.28-.046-.36-.14a.585.585 0 0 1-.12-.36c0-.146.08-.3.24-.46.16-.16.327-.24.5-.24.187 0 .32.054.4.16.08.094.12.187.12.28 0 .2-.08.38-.24.54a.779.779 0 0 1-.54.22Zm8.194 6.76c-.706 0-1.06-.206-1.06-.62 0-.266.087-.553.26-.86.187-.306.414-.613.68-.92.267-.32.534-.633.8-.94.28-.306.507-.586.68-.84.187-.266.28-.493.28-.68 0-.066-.033-.12-.1-.16-.053-.053-.133-.08-.24-.08-.16 0-.386.08-.68.24-.28.16-.64.434-1.08.82-.426.374-.933.88-1.52 1.52a41.829 41.829 0 0 0-2.02 2.36c-.12-.026-.3-.04-.54-.04-.24 0-.446.027-.62.08.387-.56.767-1.106 1.14-1.64.374-.533.714-1.02 1.02-1.46.32-.44.574-.8.76-1.08.187-.293.28-.473.28-.54 0-.12-.06-.18-.18-.18-.133 0-.3.107-.5.32-.2.2-.42.46-.66.78-.24.307-.486.62-.74.94l-.18-.12c.267-.306.527-.626.78-.96.254-.333.514-.62.78-.86.267-.24.547-.36.84-.36.147 0 .28.04.4.12.134.067.2.18.2.34 0 .147-.06.327-.18.54-.106.2-.253.434-.44.7-.186.254-.4.54-.64.86-.226.307-.466.64-.72 1l.02.12c.707-.773 1.3-1.4 1.78-1.88.494-.48.9-.846 1.22-1.1.334-.266.62-.446.86-.54.254-.106.494-.16.72-.16.307 0 .527.067.66.2.134.12.2.287.2.5 0 .32-.093.66-.28 1.02-.186.347-.42.694-.7 1.04-.266.334-.54.647-.82.94-.266.28-.493.52-.68.72-.186.2-.28.334-.28.4 0 .08.02.14.06.18.054.04.18.06.38.06.494 0 .96-.153 1.4-.46.454-.306.887-.68 1.3-1.12.414-.453.8-.9 1.16-1.34l.16.14c-.36.427-.753.874-1.18 1.34-.426.467-.873.86-1.34 1.18-.466.32-.946.48-1.44.48Zm20.305 2.12c-.12-.08-.254-.28-.4-.6-.134-.32-.2-.82-.2-1.5 0-.44.086-.886.26-1.34.173-.466.413-.893.72-1.28.306-.4.666-.72 1.08-.96.413-.24.86-.36 1.34-.36.4 0 .7.127.9.38.2.24.3.514.3.82 0 .347-.147.74-.44 1.18-.294.427-.734.794-1.32 1.1-.574.307-1.294.46-2.16.46-.494 0-.974-.066-1.44-.2a2.55 2.55 0 0 1-1.12-.7c-.294-.32-.44-.74-.44-1.26 0-.68.213-1.3.64-1.86a4.726 4.726 0 0 1 1.7-1.34 5.187 5.187 0 0 1 2.24-.5c.226 0 .52.027.88.08.36.04.68.12.96.24.28.12.42.287.42.5 0 .094-.034.16-.1.2a.648.648 0 0 1-.24.04c-.347 0-.687-.093-1.02-.28-.334-.2-.614-.46-.84-.78a1.833 1.833 0 0 1-.32-1.04c0-.733.22-1.393.66-1.98a4.74 4.74 0 0 1 1.76-1.42 5.452 5.452 0 0 1 2.36-.52c.853 0 1.493.154 1.92.46.426.294.64.7.64 1.22 0 .454-.227.9-.68 1.34-.44.44-1.047.8-1.82 1.08-.774.28-1.647.42-2.62.42-1.054 0-1.914-.1-2.58-.3-.667-.2-1.187-.44-1.56-.72-.374-.293-.64-.566-.8-.82a5.181 5.181 0 0 1-.28-.56c-.04-.106-.04-.166 0-.18.04-.026.093-.006.16.06.04.067.12.22.24.46.133.24.353.5.66.78.32.28.786.527 1.4.74.613.2 1.426.3 2.44.3.56 0 1.14-.066 1.74-.2a7.777 7.777 0 0 0 1.68-.56c.52-.24.94-.52 1.26-.84.32-.333.48-.693.48-1.08 0-.4-.167-.733-.5-1-.334-.266-.854-.4-1.56-.4-.6 0-1.16.14-1.68.42-.52.28-.98.634-1.38 1.06-.387.414-.694.84-.92 1.28-.227.427-.34.787-.34 1.08 0 .294.073.58.22.86.16.28.353.507.58.68.24.174.48.26.72.26.093 0 .14-.033.14-.1 0-.053-.06-.12-.18-.2a1.625 1.625 0 0 0-.5-.2 2.22 2.22 0 0 0-.7-.1 3.92 3.92 0 0 0-1.58.34c-.52.227-1 .527-1.44.9-.427.36-.774.76-1.04 1.2-.254.44-.38.874-.38 1.3 0 .32.073.6.22.84.16.24.386.434.68.58.293.134.66.2 1.1.2.44 0 .88-.093 1.32-.28.44-.2.84-.453 1.2-.76.373-.306.666-.62.88-.94.226-.333.34-.626.34-.88a.59.59 0 0 0-.22-.48c-.147-.133-.354-.2-.62-.2-.44 0-.854.12-1.24.36a3.746 3.746 0 0 0-1.04.92 4.637 4.637 0 0 0-.7 1.26 3.49 3.49 0 0 0-.24 1.36c.013.414.06.78.14 1.1.093.334.22.587.38.76.026.04.033.08.02.12-.014.04-.06.034-.14-.02Zm12.185-7.38c.12.054.3.08.54.08.253 0 .467-.013.64-.04-.333.4-.707.834-1.12 1.3-.413.454-.807.907-1.18 1.36-.373.454-.68.86-.92 1.22-.253.36-.38.64-.38.84 0 .134.04.22.12.26a.5.5 0 0 0 .26.06c.32 0 .673-.126 1.06-.38.4-.253.807-.58 1.22-.98.427-.413.84-.853 1.24-1.32.4-.466.767-.906 1.1-1.32.347-.426.64-.78.88-1.06.133.04.32.06.56.06.24 0 .447-.013.62-.04-.347.44-.733.907-1.16 1.4-.427.48-.84.947-1.24 1.4-.387.44-.707.834-.96 1.18-.253.334-.38.587-.38.76 0 .08.033.147.1.2.08.04.187.06.32.06.293 0 .607-.1.94-.3a6.657 6.657 0 0 0 1.02-.78c.347-.32.673-.64.98-.96.32-.333.593-.626.82-.88l.16.14c-.213.227-.48.514-.8.86-.307.334-.647.667-1.02 1-.36.32-.727.594-1.1.82-.373.214-.727.32-1.06.32a.918.918 0 0 1-.52-.16c-.16-.106-.24-.3-.24-.58 0-.253.06-.513.18-.78.12-.28.247-.52.38-.72.133-.213.213-.34.24-.38l.14.06c-.12.174-.313.407-.58.7-.253.28-.553.567-.9.86a6.19 6.19 0 0 1-1.06.72c-.373.187-.74.28-1.1.28-.573 0-.86-.3-.86-.9 0-.253.107-.553.32-.9.213-.36.487-.74.82-1.14.32-.413.653-.82 1-1.22s.653-.766.92-1.1Zm9.056 2.46c-.053.054-.093.06-.12.02a.226.226 0 0 1-.02-.16c.227-.226.447-.493.66-.8a7.74 7.74 0 0 0 .56-.86c.16-.266.253-.446.28-.54.027 0 .067-.02.12-.06.067-.04.127-.053.18-.04-.013.094-.033.18-.06.26-.013.08.033.154.14.22.107.067.327.134.66.2.333.067.84.14 1.52.22.067.014.113.04.14.08.04.027.02.074-.06.14-.253.2-.533.454-.84.76-.307.307-.607.634-.9.98-.28.334-.513.66-.7.98-.173.32-.26.587-.26.8 0 .24.107.36.32.36.267 0 .567-.106.9-.32a7.545 7.545 0 0 0 1.04-.78c.347-.32.667-.64.96-.96.307-.333.56-.606.76-.82l.16.12c-.187.187-.427.447-.72.78-.293.334-.627.674-1 1.02a6.54 6.54 0 0 1-1.16.86c-.413.227-.84.34-1.28.34-.253 0-.48-.06-.68-.18-.2-.106-.3-.306-.3-.6 0-.28.12-.573.36-.88.24-.306.54-.613.9-.92.36-.32.733-.62 1.12-.9.4-.293.753-.56 1.06-.8l.14.18c-.133-.053-.367-.1-.7-.14-.333-.053-.68-.12-1.04-.2a4.068 4.068 0 0 1-.94-.36c-.253-.146-.38-.346-.38-.6 0-.133.053-.293.16-.48.12-.2.28-.3.48-.3.187 0 .313.04.38.12.067.067.1.16.1.28 0 .08-.067.247-.2.5-.133.24-.3.527-.5.86-.2.32-.413.627-.64.92a4.824 4.824 0 0 1-.6.7Zm12.714-2.48c.667 0 1 .32 1 .96 0 .494-.113 1-.34 1.52a5.297 5.297 0 0 1-.92 1.4 5.656 5.656 0 0 1-1.26 1.02c-.453.254-.913.38-1.38.38-.36 0-.66-.086-.9-.26-.253-.186-.38-.486-.38-.9 0-.386.113-.813.34-1.28.227-.48.533-.933.92-1.36.4-.426.847-.78 1.34-1.06a3.224 3.224 0 0 1 1.58-.42Zm.22.28c-.227 0-.493.1-.8.3-.307.2-.62.46-.94.78-.32.32-.62.667-.9 1.04-.267.36-.487.714-.66 1.06-.16.347-.24.64-.24.88 0 .267.073.454.22.56a.91.91 0 0 0 .5.14c.307 0 .653-.126 1.04-.38.387-.266.76-.6 1.12-1 .36-.4.653-.82.88-1.26.24-.453.36-.866.36-1.24 0-.346-.06-.58-.18-.7a.554.554 0 0 0-.4-.18Zm.36 2.06c.067 0 .093.027.08.08 0 .04-.033.06-.1.06-.053 0-.133.074-.24.22a4.521 4.521 0 0 0-.38.66c0 .307.113.46.34.46.213 0 .453-.1.72-.3.28-.2.547-.426.8-.68.267-.266.48-.5.64-.7l.16.14c-.173.2-.393.44-.66.72a7.11 7.11 0 0 1-.84.72c-.293.2-.567.3-.82.3-.213 0-.36-.046-.44-.14-.08-.093-.12-.26-.12-.5 0-.32.107-.573.32-.76.227-.186.407-.28.54-.28Zm9.119-4.58c.16.027.353.04.58.04.24 0 .44-.02.6-.06a142.147 142.147 0 0 1-.96 1.2c-.227.267-.467.554-.72.86-.24.307-.493.627-.76.96l-.74.94c-.24.294-.46.574-.66.84-.187.267-.347.494-.48.68l.06.06c.333-.293.647-.58.94-.86.307-.28.6-.54.88-.78s.553-.46.82-.66c.267-.2.527-.373.78-.52.253-.146.493-.26.72-.34.24-.08.473-.12.7-.12.347 0 .567.06.66.18a.73.73 0 0 1 .14.46c0 .374-.12.734-.36 1.08-.24.334-.533.654-.88.96-.347.307-.7.587-1.06.84-.347.254-.64.487-.88.7-.24.2-.36.367-.36.5 0 .134.047.227.14.28.093.054.207.08.34.08.413 0 .847-.153 1.3-.46.453-.306.9-.68 1.34-1.12.44-.453.84-.9 1.2-1.34l.18.12c-.373.427-.787.874-1.24 1.34-.44.467-.9.86-1.38 1.18-.467.32-.927.48-1.38.48-.373 0-.62-.08-.74-.24a.927.927 0 0 1-.16-.48c0-.373.12-.726.36-1.06a5.26 5.26 0 0 1 .88-.94c.347-.293.693-.566 1.04-.82.347-.253.64-.486.88-.7.24-.213.36-.406.36-.58 0-.08-.027-.14-.08-.18-.053-.053-.153-.08-.3-.08-.32 0-.687.114-1.1.34a8.85 8.85 0 0 0-1.3.84c-.44.347-.88.72-1.32 1.12-.427.4-.827.794-1.2 1.18-.36.387-.66.72-.9 1-.253.28-.427.467-.52.56-.067.08-.2.26-.4.54s-.427.614-.68 1a192.357 192.357 0 0 0-1.6 2.44 21.99 21.99 0 0 0-.6.96c-.16.254-.253.407-.28.46-.053.04-.173.067-.36.08a3.63 3.63 0 0 1-.54 0c-.187-.013-.313-.04-.38-.08.013-.026.153-.22.42-.58.267-.346.613-.82 1.04-1.42.427-.586.913-1.253 1.46-2l1.66-2.28c.573-.786 1.133-1.553 1.68-2.3.547-.76 1.047-1.446 1.5-2.06.467-.626.847-1.133 1.14-1.52.293-.4.467-.64.52-.72Zm8.281 7.52c-.627 0-1.04-.14-1.24-.42-.2-.293-.3-.6-.3-.92 0-.546.14-1.053.42-1.52.28-.48.64-.906 1.08-1.28.44-.373.893-.66 1.36-.86.48-.213.907-.32 1.28-.32.267 0 .48.04.64.12.16.067.24.214.24.44 0 .214-.127.44-.38.68-.253.24-.573.474-.96.7a14.78 14.78 0 0 1-1.22.6c-.413.174-.793.314-1.14.42-.347.107-.6.16-.76.16V65c.12.014.327-.026.62-.12a13.7 13.7 0 0 0 1.02-.36c.373-.16.733-.34 1.08-.54.36-.2.653-.413.88-.64.24-.226.36-.446.36-.66 0-.106-.033-.2-.1-.28-.053-.08-.153-.12-.3-.12-.213 0-.473.107-.78.32-.293.2-.593.467-.9.8-.307.334-.593.687-.86 1.06a8.06 8.06 0 0 0-.66 1.08c-.16.334-.24.614-.24.84 0 .267.08.467.24.6.16.134.393.2.7.2.533 0 1.033-.126 1.5-.38a7.12 7.12 0 0 0 1.3-.92c.387-.36.713-.693.98-1 .267-.32.447-.526.54-.62l.06.06.08.06c-.093.107-.273.32-.54.64s-.6.667-1 1.04c-.4.374-.853.694-1.36.96-.507.267-1.053.4-1.64.4Z"/>
</svg>
